<?xml version="1.0" standalone="no"?><!DOCTYPE svg PUBLIC "-//W3C//DTD SVG 1.1//EN" "http://www.w3.org/Graphics/SVG/1.1/DTD/svg11.dtd"><svg t="1716530598069" class="icon" viewBox="0 0 1024 1024" version="1.1" xmlns="http://www.w3.org/2000/svg" p-id="2823" xmlns:xlink="http://www.w3.org/1999/xlink" width="200" height="200"><path d="M597.333333 170.666667q18.005333 0 30.336 12.330667l298.666667 298.666667q12.330667 12.330667 12.330667 30.336t-12.330667 30.336l-298.666667 298.666667q-12.330667 12.330667-30.336 12.330667-18.346667 0-30.506667-12.16t-12.16-30.506667q0-18.005333 12.330667-30.336l226.005333-225.664-665.002667 0q-17.664 0-30.165333-12.501333t-12.501333-30.165333 12.501333-30.165333 30.165333-12.501333l665.002667 0-226.005333-225.664q-12.330667-12.330667-12.330667-30.336 0-18.346667 12.16-30.506667t30.506667-12.16z" p-id="2824"></path></svg>