<?xml version="1.0" standalone="no"?><!DOCTYPE svg PUBLIC "-//W3C//DTD SVG 1.1//EN" "http://www.w3.org/Graphics/SVG/1.1/DTD/svg11.dtd"><svg t="1716813622121" class="icon" viewBox="0 0 1024 1024" version="1.1" xmlns="http://www.w3.org/2000/svg" p-id="2807" xmlns:xlink="http://www.w3.org/1999/xlink" width="64" height="64"><path d="M517.818182 69.818182C765.207273 69.818182 965.818182 270.429091 965.818182 517.818182S765.207273 965.818182 517.818182 965.818182 69.818182 765.207273 69.818182 517.818182 270.429091 69.818182 517.818182 69.818182z m0 819.991273c205.405091 0 371.991273-166.586182 371.991273-371.991273S723.223273 145.826909 517.818182 145.826909 145.826909 312.413091 145.826909 517.818182s166.586182 371.991273 371.991273 371.991273z m-47.988364-195.979637a48.011636 48.011636 0 1 1 96 0 48.011636 48.011636 0 0 1-96 0zM493.800727 581.818182a8.029091 8.029091 0 0 1-7.982545-8.005818V301.847273c0-4.421818 3.607273-8.005818 8.005818-8.005818h47.988364c4.421818 0 8.005818 3.607273 8.005818 8.005818v271.988363c0 4.421818-3.607273 8.005818-8.005818 8.005819H493.847273z" p-id="2808"></path></svg>