<?xml version="1.0" standalone="no"?><!DOCTYPE svg PUBLIC "-//W3C//DTD SVG 1.1//EN" "http://www.w3.org/Graphics/SVG/1.1/DTD/svg11.dtd"><svg t="1716599412068" class="icon" viewBox="0 0 1024 1024" version="1.1" xmlns="http://www.w3.org/2000/svg" p-id="3949" xmlns:xlink="http://www.w3.org/1999/xlink" width="64" height="64"><path d="M1024 512A512 512 0 1 1 0 512a512 512 0 0 1 1024 0zM530.368 377.984c-49.792 20.736-149.376 63.616-298.624 128.64-24.192 9.6-36.928 19.072-38.08 28.288-1.92 15.552 17.6 21.696 44.16 30.08l11.2 3.52c26.112 8.512 61.312 18.432 79.552 18.816 16.64 0.384 35.136-6.4 55.552-20.48 139.456-94.144 211.456-141.696 215.936-142.72 3.2-0.768 7.68-1.664 10.624 1.024 3.008 2.624 2.688 7.68 2.368 9.024-1.92 8.256-78.528 79.424-118.144 116.288-12.352 11.52-21.12 19.648-22.912 21.504a521.856 521.856 0 0 1-12.032 11.904c-24.32 23.424-42.496 40.96 0.96 69.632 20.928 13.824 37.696 25.152 54.4 36.544 18.176 12.416 36.352 24.768 59.904 40.256 5.952 3.84 11.712 8 17.28 11.968 21.184 15.104 40.32 28.672 63.808 26.496 13.696-1.28 27.84-14.08 35.008-52.48 16.96-90.688 50.304-287.104 57.984-368.064a91.264 91.264 0 0 0-0.832-20.16 21.568 21.568 0 0 0-7.296-13.888 33.664 33.664 0 0 0-19.84-5.952c-19.2 0.32-48.832 10.624-190.976 69.76z" p-id="3950"></path></svg>